<svg width="1200" height="400" viewBox="0 0 1200 400" fill="none" xmlns="http://www.w3.org/2000/svg">
    <defs>
        <linearGradient id="ai-glow" x1="160" y1="140" x2="160" y2="260" gradientUnits="userSpaceOnUse">
            <stop offset="0%" stop-color="#4285F4" />
            <stop offset="100%" stop-color="#9C27B0" />
        </linearGradient>
        <linearGradient id="metal-sheen" x1="80" y1="80" x2="240" y2="320" gradientUnits="userSpaceOnUse">
            <stop offset="0%" stop-color="#455A64" />
            <stop offset="50%" stop-color="#607D8B" />
            <stop offset="100%" stop-color="#37474F" />
        </linearGradient>
    </defs>

    <!-- Icon -->
    <g transform="translate(40, 40) scale(0.8)">
        <path d="M 200,360
                 A 130,130 0 1 1 330,152
                 L 291,191
                 A 78,78 0 1 0 226,321
                 Z"
              fill="url(#metal-sheen)" stroke="#263238" stroke-width="5" stroke-linejoin="round"/>

        <path d="M 330,152 L 369,113 L 317,61 L 278,100 Z" fill="url(#metal-sheen)" stroke="#263238" stroke-width="4"/>
        <circle cx="304" cy="126" r="15" fill="#CFD8DC" stroke="#263238" stroke-width="4"/>

        <path d="M 200,360 L 161,399 L 109,347 L 148,308 Z" fill="url(#metal-sheen)" stroke="#263238" stroke-width="4"/>
        <circle cx="174" cy="334" r="15" fill="#CFD8DC" stroke="#263238" stroke-width="4"/>

        <circle cx="260" cy="256" r="45" fill="url(#ai-glow)" stroke="#FFFFFF" stroke-width="5" opacity="0.9"/>
        <circle cx="260" cy="256" r="26" fill="#FFFFFF" opacity="0.3"/>
    </g>

    <!-- Text -->
    <text x="440" y="220" font-family="'Roboto', 'Inter', 'Helvetica Neue', sans-serif" font-size="72" fill="#263238">
        <tspan font-weight="300">Open</tspan><tspan font-weight="700">Castor</tspan>
    </text>
    <text x="440" y="265" font-family="'Roboto', 'Inter', 'Helvetica Neue', sans-serif" font-size="22" fill="#607D8B" font-weight="400" letter-spacing="2">
        The Body for the AI Brain
    </text>
</svg>
